<svg version="1.1" id="Layer_1" xmlns="http://www.w3.org/2000/svg" xmlns:xlink="http://www.w3.org/1999/xlink" x="0px" y="0px"
	 width="100%" viewBox="0 0 400 400" enable-background="new 0 0 400 400" xml:space="preserve">
<path fill="#FFFFFF" opacity="1.000000" stroke="none" 
	d="
M226.000000,401.000000 
	C150.690048,401.000000 75.880096,401.000000 1.035072,401.000000 
	C1.035072,267.731720 1.035072,134.463425 1.035072,1.097562 
	C134.226578,1.097562 267.453247,1.097562 400.839966,1.097562 
	C400.839966,134.333176 400.839966,267.666565 400.839966,401.000000 
	C342.796844,401.000000 284.648407,401.000000 226.000000,401.000000 
M179.500000,67.000000 
	C156.842804,67.000000 134.185074,66.908119 111.528641,67.040482 
	C100.908134,67.102516 90.290977,67.650589 79.669769,67.813438 
	C78.598351,67.829872 77.354454,66.875992 76.457787,66.073769 
	C73.818237,63.712219 71.508896,63.776474 69.121490,66.812813 
	C72.209969,71.021568 70.769554,74.659760 67.669182,78.268356 
	C66.763123,79.322952 66.465424,81.139587 66.409996,82.626366 
	C66.337112,84.581467 66.971420,86.555672 66.972275,88.521812 
	C67.004990,164.157135 67.015045,239.792496 66.935478,315.427765 
	C66.932785,317.992859 66.324989,320.692047 65.390709,323.091827 
	C63.732952,327.349915 63.522427,330.832092 68.556824,332.640320 
	C68.031654,333.957367 67.586266,335.074341 67.015106,336.506714 
	C71.435936,337.201141 75.167114,337.848083 78.467766,334.302338 
	C79.413002,333.286896 81.836853,333.159546 83.482964,333.377655 
	C88.157333,333.997162 92.751892,335.468262 97.429810,335.754059 
	C104.733589,336.200348 112.378838,337.214935 119.312180,335.581360 
	C124.672356,334.318451 129.156662,335.846649 134.034821,335.863525 
	C194.342468,336.072327 254.651093,336.009979 314.959381,335.948517 
	C316.705811,335.946747 318.482300,335.285492 320.189728,334.754547 
	C322.396179,334.068390 324.547150,333.203735 326.722046,332.415924 
	C326.647430,332.962341 326.572845,333.508789 326.498230,334.055206 
	C327.664185,334.971130 328.830109,335.887024 329.996063,336.802948 
	C331.975616,333.776611 336.302765,329.641052 335.495087,327.931671 
	C333.060028,322.778046 335.096405,318.110260 335.088409,313.338470 
	C334.962555,238.036530 335.011261,162.734299 334.957001,87.432198 
	C334.954956,84.555183 334.320648,81.678627 333.961060,78.633125 
	C339.230347,76.462128 339.256897,76.273407 334.500397,71.516838 
	C333.218170,70.234612 331.946655,68.941406 330.649811,67.674118 
	C325.687042,62.824451 325.683929,62.827629 323.171448,68.305405 
	C316.606110,67.450233 310.182678,66.613548 303.495880,65.742561 
	C303.138702,66.894020 302.683197,68.362488 301.848541,71.053261 
	C300.135101,69.177345 299.220337,67.769821 297.944489,66.880241 
	C296.292877,65.728661 293.535400,63.725899 292.673248,64.283592 
	C287.869202,67.391182 283.164001,67.189064 277.791290,66.213524 
	C273.859680,65.499649 269.586853,66.943642 265.464691,66.955872 
	C237.143326,67.039879 208.821609,67.000000 179.500000,67.000000 
M65.735909,74.603775 
	C66.765366,73.930038 67.794823,73.256294 68.824272,72.582550 
	C68.294258,72.085426 67.764236,71.588303 67.234222,71.091179 
	C66.574417,72.073059 65.914619,73.054939 65.735909,74.603775 
z"/>
<path fill="#FEFEFD" opacity="1.000000" stroke="none" 
	d="
M180.000000,67.000000 
	C208.821609,67.000000 237.143326,67.039879 265.464691,66.955872 
	C269.586853,66.943642 273.859680,65.499649 277.791290,66.213524 
	C283.164001,67.189064 287.869202,67.391182 292.673248,64.283592 
	C293.535400,63.725899 296.292877,65.728661 297.944489,66.880241 
	C299.220337,67.769821 300.135101,69.177345 301.848541,71.053261 
	C302.683197,68.362488 303.138702,66.894020 303.495880,65.742561 
	C310.182678,66.613548 316.606110,67.450233 323.171448,68.305405 
	C325.683929,62.827629 325.687042,62.824451 330.649811,67.674118 
	C331.946655,68.941406 333.218170,70.234612 334.500397,71.516838 
	C339.256897,76.273407 339.230347,76.462128 333.961060,78.633125 
	C334.320648,81.678627 334.954956,84.555183 334.957001,87.432198 
	C335.011261,162.734299 334.962555,238.036530 335.088409,313.338470 
	C335.096405,318.110260 333.060028,322.778046 335.495087,327.931671 
	C336.302765,329.641052 331.975616,333.776611 329.996033,336.802917 
	C328.830109,335.887024 327.664185,334.971130 326.498230,334.055206 
	C326.572845,333.508789 326.647430,332.962341 326.722046,332.415924 
	C324.547150,333.203735 322.396179,334.068390 320.189728,334.754547 
	C318.482300,335.285492 316.705811,335.946747 314.959381,335.948517 
	C254.651093,336.009979 194.342468,336.072327 134.034821,335.863525 
	C129.156662,335.846649 124.672356,334.318451 119.312180,335.581360 
	C112.378838,337.214935 104.733589,336.200348 97.429810,335.754059 
	C92.751892,335.468262 88.157333,333.997162 83.482964,333.377655 
	C81.836853,333.159546 79.413002,333.286896 78.467766,334.302338 
	C75.167114,337.848083 71.435936,337.201141 67.015106,336.506714 
	C67.586266,335.074341 68.031654,333.957367 68.556824,332.640320 
	C63.522427,330.832092 63.732952,327.349915 65.390709,323.091827 
	C66.324989,320.692047 66.932785,317.992859 66.935478,315.427765 
	C67.015045,239.792496 67.004990,164.157135 66.972275,88.521812 
	C66.971420,86.555672 66.337112,84.581467 66.409996,82.626366 
	C66.465424,81.139587 66.763123,79.322952 67.669182,78.268356 
	C70.769554,74.659760 72.209969,71.021568 69.121490,66.812813 
	C71.508896,63.776474 73.818237,63.712219 76.457787,66.073769 
	C77.354454,66.875992 78.598351,67.829872 79.669769,67.813438 
	C90.290977,67.650589 100.908134,67.102516 111.528641,67.040482 
	C134.185074,66.908119 156.842804,67.000000 180.000000,67.000000 
M148.470612,118.950066 
	C148.470612,118.950066 148.010651,118.754822 147.998596,118.104843 
	C146.749344,115.585449 146.518265,115.633301 143.085922,119.122780 
	C136.401154,119.177818 129.716385,119.232849 122.333725,119.034836 
	C121.595390,119.078133 120.857056,119.121422 119.636742,119.087578 
	C119.636742,119.087578 119.148842,119.073120 118.448547,119.080276 
	C117.737137,119.794464 117.025726,120.508652 116.314323,121.222839 
	C117.166222,121.821198 118.018112,122.419556 118.953758,123.949448 
	C118.961136,169.344650 118.982483,214.739868 118.969727,260.135071 
	C118.963753,281.417633 118.892036,302.700226 118.206154,324.113129 
	C118.503876,325.060272 118.801598,326.007446 119.590645,326.973877 
	C119.590645,326.973877 120.079117,326.917572 120.616074,327.004578 
	C120.782867,326.933441 120.949661,326.862335 121.726105,326.921051 
	C122.137230,326.878723 122.548355,326.836395 123.750381,327.021729 
	C124.834244,326.943939 125.918114,326.866150 127.648476,326.916229 
	C128.083893,326.875000 128.519318,326.833771 129.490189,326.979980 
	C129.667984,326.915680 129.845779,326.851349 130.950150,326.912628 
	C172.349243,326.919159 213.748337,326.942322 255.147430,326.925415 
	C276.758636,326.916595 298.369812,326.837250 320.820190,327.023163 
	C322.993622,326.682526 325.167023,326.341858 328.079376,325.859344 
	C328.056030,322.194824 328.012512,318.530304 328.012329,314.865784 
	C328.008392,238.575684 328.008057,162.285583 328.016754,85.995476 
	C328.016968,83.999336 328.126343,82.003212 328.894379,79.819923 
	C330.408997,77.532028 331.350769,75.454147 326.841309,75.621712 
	C326.674042,75.559311 326.506805,75.496918 326.856689,74.780869 
	C326.908997,74.508011 326.961304,74.235153 326.818817,73.174721 
	C326.310608,72.807693 325.805664,72.125877 325.293762,72.120613 
	C316.982666,72.035126 308.669861,71.981461 300.360138,72.103325 
	C299.566010,72.114967 298.789703,73.343010 297.916199,74.379585 
	C297.916199,74.379585 297.783142,74.739517 297.279327,75.384163 
	C297.108429,77.590843 296.937531,79.797531 296.038727,81.987633 
	C289.356750,79.301056 288.037384,80.285667 288.000671,87.989059 
	C287.995911,88.988930 288.000000,89.988838 288.000000,90.988731 
	C288.000000,144.982895 287.903351,198.977386 288.088898,252.970901 
	C288.122406,262.715942 289.571381,272.449219 289.869019,282.203094 
	C290.024078,287.285217 292.346924,288.588470 296.905914,288.861816 
	C296.867126,290.901123 296.828339,292.940430 296.211975,295.084808 
	C295.806122,295.688202 295.400269,296.291595 294.074890,297.086548 
	C276.384674,297.018951 258.694427,296.951324 240.932068,296.296844 
	C240.364014,295.858887 239.795959,295.420929 239.089432,294.057617 
	C239.070724,255.658401 239.034241,217.259201 239.041061,178.859985 
	C239.044312,160.577026 239.129974,142.294067 239.872681,123.836502 
	C241.334534,121.836594 242.266556,119.958321 238.365021,119.098549 
	C238.365021,119.098549 237.953613,119.177185 237.365433,119.042480 
	C237.181671,119.124275 236.997925,119.206062 236.388687,119.160919 
	C236.388687,119.160919 235.999115,118.947906 235.927963,118.359627 
	C235.282532,118.552811 234.637085,118.745995 233.151062,119.133018 
	C231.432678,119.066475 229.714294,118.999924 227.823090,118.603477 
	C227.548935,118.715218 227.274780,118.826958 226.097275,119.134415 
	C222.406082,119.185036 218.714905,119.235657 214.234314,119.024742 
	C212.497208,119.354340 210.760101,119.683937 208.806992,120.809845 
	C208.763748,122.182388 208.720505,123.554939 208.210297,125.618515 
	C208.141861,126.277550 208.013672,126.936577 208.013519,127.595627 
	C208.001175,180.147049 207.993988,232.698486 208.024414,285.249878 
	C208.025146,286.525177 208.452667,287.800201 208.756363,289.928192 
	C208.728836,291.924042 208.701309,293.919861 208.285706,296.119904 
	C208.078156,296.347687 207.972656,296.615662 207.050278,297.100342 
	C190.364914,297.195648 173.679535,297.290985 156.152695,297.169434 
	C154.418152,297.074615 152.683594,296.979767 150.706772,296.434204 
	C150.421738,296.254608 150.136688,296.075012 149.598846,295.279724 
	C149.685410,294.853455 149.771957,294.427155 150.589462,293.654755 
	C151.059586,291.813141 151.928375,289.973663 151.938248,288.129578 
	C152.038925,269.309418 151.999863,250.488480 152.000015,231.667770 
	C152.000320,195.858444 152.030899,160.049011 151.908569,124.240112 
	C151.902695,122.519211 150.548889,120.802910 149.363205,119.093864 
	C149.363205,119.093864 148.910843,119.186447 148.470612,118.950066 
M163.942123,107.777748 
	C164.056885,108.531288 164.171646,109.284828 164.177032,110.765877 
	C164.206100,111.498955 164.235184,112.232025 164.005508,113.874931 
	C163.987762,166.608612 163.968216,219.342300 163.965927,272.075989 
	C163.965881,273.060516 164.170334,274.045044 164.184937,275.807983 
	C164.216675,276.851349 164.248413,277.894714 164.014420,279.669708 
	C164.316864,280.594849 164.619293,281.519989 165.513870,282.833496 
	C166.689438,282.951324 167.865005,283.069183 169.424591,283.610229 
	C170.269104,283.471680 171.113602,283.333130 172.894531,283.087036 
	C179.902359,283.001617 186.910172,282.916168 194.204147,283.308014 
	C194.672165,283.220551 195.140198,283.133057 195.608215,283.045593 
	C195.179550,282.683258 194.750870,282.320923 194.071823,281.867371 
	C194.071823,281.867371 193.844223,282.005951 194.036621,281.222107 
	C194.091599,280.149109 194.146576,279.076080 194.649689,277.545410 
	C194.506149,276.360748 194.362610,275.176086 194.105530,273.061676 
	C194.099640,255.608398 194.075668,238.155090 194.091583,220.701828 
	C194.124939,184.135315 194.179276,147.568817 194.689346,110.480301 
	C194.807205,109.320068 194.925064,108.159836 195.641708,106.931160 
	C196.100128,106.363586 196.558563,105.796005 197.944275,105.106453 
	C215.966568,105.160751 233.988876,105.215050 252.234894,105.599174 
	C252.420288,105.803413 252.647491,105.936111 253.112198,106.635361 
	C253.167847,107.076103 253.223511,107.516838 253.076523,108.538269 
	C253.154755,108.727890 253.233002,108.917511 253.223373,110.026588 
	C253.208481,163.349304 253.192291,216.672028 253.188690,269.994751 
	C253.188614,270.986847 253.337875,271.978943 253.190002,273.830933 
	C253.214737,276.194794 253.239471,278.558655 253.026749,281.444489 
	C253.077393,281.628815 253.128021,281.813141 252.967361,281.846619 
	C252.967361,281.846619 252.708740,281.869141 252.195541,281.649658 
	C251.634125,281.843964 251.072708,282.038239 250.511292,282.232544 
	C251.635849,285.232025 254.388519,285.639069 257.937653,283.080627 
	C262.972046,283.111206 268.006439,283.141785 273.484985,283.624176 
	C274.644562,283.467621 275.804138,283.311096 277.637115,283.070953 
	C278.086639,283.110107 278.536133,283.149261 279.112610,283.815460 
	C280.091003,283.595032 281.069366,283.374603 282.143646,282.785675 
	C282.143646,282.785675 282.066956,282.412720 282.769287,281.833862 
	C282.863373,279.678528 283.039246,277.523193 283.039673,275.367828 
	C283.052094,211.568222 283.044861,147.768616 283.052734,83.969017 
	C283.053070,81.307762 283.168793,78.646523 283.511627,75.751915 
	C283.341278,75.503235 283.170898,75.254555 282.546112,74.824883 
	C282.546112,74.824883 282.086121,74.658493 281.837677,74.260612 
	C281.580811,74.077705 281.303009,73.935822 280.828003,73.137428 
	C278.673401,71.665726 276.583130,70.717743 274.335388,73.930733 
	C273.894379,73.906914 273.453369,73.883102 272.795013,73.089699 
	C270.935486,72.726158 269.076294,72.046654 267.216431,72.044907 
	C207.905136,71.989174 148.593781,72.006454 89.282455,71.976166 
	C86.474617,71.974739 83.647903,71.357712 80.865059,71.545937 
	C78.530273,71.703865 75.204239,70.771080 74.111359,75.141174 
	C73.740852,76.503128 73.046951,77.864876 73.046082,79.227066 
	C72.994743,159.873352 72.990189,240.519684 73.075417,321.165894 
	C73.077118,322.781891 74.191231,324.396698 75.102509,326.614716 
	C75.738205,326.703644 76.373909,326.792572 77.493538,327.053101 
	C77.655754,327.107666 77.817970,327.162231 78.075447,327.768341 
	C78.723747,327.587738 79.372047,327.407135 80.945686,327.091888 
	C87.304008,327.134735 93.662331,327.177551 100.422523,327.644104 
	C101.275154,327.477448 102.127792,327.310760 103.430252,326.946991 
	C103.430252,326.946991 103.882256,326.754883 104.424004,326.880981 
	C104.573257,326.579956 104.722504,326.278931 105.017479,326.051208 
	C105.017479,326.051208 105.179955,326.036774 105.702255,325.408722 
	C105.547455,321.604858 105.392647,317.801025 105.125702,313.066589 
	C105.118881,305.416626 105.108940,297.766693 105.105736,290.116730 
	C105.079918,228.419312 105.055351,166.721893 105.091362,105.136269 
	C105.091362,105.136269 105.218483,105.128883 106.127281,105.137497 
	C124.740189,105.168327 143.353104,105.199150 162.073166,105.791718 
	C162.651215,106.201363 163.229248,106.611008 163.942123,107.777748 
M283.587677,284.516205 
	C283.587677,284.516205 283.476410,284.582733 283.587677,284.516205 
z"/>
<path fill="#FEFEFD" opacity="1.000000" stroke="none" 
	d="
M65.495361,74.320297 
	C65.914619,73.054939 66.574417,72.073059 67.234222,71.091179 
	C67.764236,71.588303 68.294258,72.085426 68.824272,72.582550 
	C67.794823,73.256294 66.765366,73.930038 65.495361,74.320297 
z"/>
<path fill="#E1090A" opacity="1.000000" stroke="none" 
	d="
M235.999115,118.947906 
	C235.999115,118.947906 236.388687,119.160919 236.589569,119.444504 
	C236.790451,119.728088 236.902985,120.154465 236.916245,120.609421 
	C236.949738,177.814453 236.960693,234.564545 237.030502,291.314545 
	C237.032837,293.212097 237.630051,295.108948 238.234406,297.103149 
	C238.695328,297.295074 238.871811,297.389923 239.175781,297.839783 
	C240.044739,298.462830 240.785629,298.962921 241.527832,298.964874 
	C258.943817,299.010498 276.360138,299.029694 293.775726,298.936890 
	C294.836792,298.931244 295.892639,297.958588 297.184448,297.299011 
	C297.590027,297.107422 297.762024,297.052734 298.254700,296.723328 
	C298.725403,294.645416 299.006165,292.842255 299.006561,291.039062 
	C299.022583,220.365311 299.013031,149.691559 299.290466,78.762833 
	C300.953552,77.675285 302.407410,76.026894 303.700256,76.144745 
	C311.157654,76.824516 319.175537,73.461288 325.995056,79.468506 
	C325.999390,159.145844 326.010864,238.354507 325.959686,317.563141 
	C325.958130,320.006592 325.306244,322.449646 324.587036,324.910889 
	C323.474884,324.955017 322.733215,324.981171 321.523438,325.005157 
	C258.943451,325.001984 196.831619,324.992828 134.719803,325.038544 
	C132.810608,325.039948 130.901855,325.612061 128.970795,326.136169 
	C128.948685,326.354218 128.954727,326.792511 128.954727,326.792511 
	C128.519318,326.833771 128.083893,326.875000 127.099022,326.622009 
	C125.352867,326.483215 124.156174,326.638641 122.959473,326.794067 
	C122.548355,326.836395 122.137230,326.878723 121.405640,326.401794 
	C121.064613,269.928253 121.033852,213.973953 121.031425,158.019638 
	C121.030891,145.698242 121.130913,133.376846 121.632874,121.039871 
	C130.694489,121.030533 139.307861,121.036766 147.943359,121.508453 
	C147.977707,178.279083 147.979904,234.584290 148.041702,290.889435 
	C148.043976,292.967316 148.628632,295.044556 148.969559,297.444580 
	C149.322159,298.367004 149.647064,298.966980 149.971954,299.566956 
	C150.343918,298.841553 150.715866,298.116150 151.067963,297.260254 
	C151.048126,297.129730 150.949051,296.884979 150.949051,296.884949 
	C152.683594,296.979767 154.418152,297.074615 156.582840,297.650574 
	C156.959763,300.616547 157.981293,301.338745 160.424042,300.557800 
	C162.678406,299.837036 165.051651,299.094299 167.380798,299.067047 
	C179.778198,298.921906 192.178909,299.061768 204.576294,298.916504 
	C206.075531,298.898926 207.561600,297.756531 209.329071,296.810486 
	C209.735474,294.510834 209.980225,292.536194 209.981125,290.561432 
	C210.006882,234.048737 210.008148,177.536041 210.480545,121.009979 
	C217.565659,120.997742 224.185745,121.087227 230.799942,120.929825 
	C232.221680,120.895988 233.622208,119.970093 235.276947,119.333649 
	C235.680634,119.124084 235.839874,119.035995 235.999115,118.947906 
z"/>
<path fill="#E1090A" opacity="1.000000" stroke="none" 
	d="
M253.279175,107.957581 
	C253.223511,107.516838 253.167847,107.076103 253.110596,106.080040 
	C253.050690,105.364922 252.992401,105.205132 252.983032,104.796059 
	C253.013748,104.378410 252.995529,104.210045 252.789703,103.763367 
	C251.738312,103.301903 250.874542,103.118736 249.913055,102.778236 
	C249.538391,102.734520 249.261429,102.848152 248.516846,102.970718 
	C232.370300,102.978302 216.691376,102.976952 200.919373,102.811722 
	C200.547195,102.755653 200.268082,102.863464 199.659973,102.974777 
	C198.892303,102.976143 198.453644,102.974014 197.920685,102.808723 
	C197.547729,102.755058 197.269073,102.864555 196.710068,102.993073 
	C195.972885,103.289070 195.516068,103.566071 194.807892,103.986694 
	C194.284836,104.401169 194.013138,104.672005 193.550049,104.951904 
	C193.358643,104.960968 192.978836,105.012001 192.686234,105.306877 
	C192.266479,106.580009 192.028366,107.558228 192.028046,108.536530 
	C192.010147,161.948059 192.005173,215.359604 192.050491,268.771118 
	C192.051697,270.179932 192.621780,271.588257 192.936249,273.433380 
	C192.888016,276.185883 192.830093,278.501801 192.329620,280.876465 
	C186.778290,280.952087 181.665787,281.094330 176.562012,280.942841 
	C173.031662,280.838013 169.513351,280.327789 165.991699,279.530151 
	C165.995377,222.784760 166.005310,166.507950 165.959625,110.231186 
	C165.958221,108.493462 165.379730,106.756210 164.896454,104.983688 
	C164.722626,104.948631 164.368576,104.927643 164.266418,104.704300 
	C164.164261,104.480965 163.975449,104.027527 163.695801,103.717232 
	C162.774750,103.270744 162.133545,103.016449 161.491959,103.015572 
	C143.866913,102.991409 126.241760,102.970764 108.616966,103.039940 
	C107.425644,103.044609 106.237114,103.758553 105.050385,104.396072 
	C105.108498,104.809311 105.163490,104.969101 105.218483,105.128883 
	C105.218483,105.128883 105.091362,105.136269 104.742729,105.352707 
	C104.262245,107.708214 104.016434,109.847206 104.015030,111.986366 
	C103.968208,183.336273 103.944725,254.686188 103.892105,326.214966 
	C103.866379,326.393829 103.882256,326.754883 103.882256,326.754883 
	C103.882256,326.754883 103.430252,326.946991 102.990738,326.927490 
	C102.551224,326.907959 102.085983,326.753906 101.769554,326.520203 
	C99.305779,326.174347 97.158424,326.062225 94.989449,325.540161 
	C93.751366,324.421875 92.563873,323.168518 91.313293,323.102051 
	C86.573303,322.850128 81.812866,322.982605 77.042709,322.504761 
	C77.021851,241.693253 77.018364,161.348251 77.258293,80.829880 
	C77.653442,80.092270 77.805176,79.528038 77.845406,78.681152 
	C77.510925,77.633545 77.287949,76.868584 77.526329,76.069084 
	C145.648361,76.028992 213.309021,76.023438 280.979736,76.008881 
	C280.989807,75.999878 280.984344,76.022499 280.986633,76.384254 
	C281.305206,77.836250 281.621490,78.926491 281.952087,80.484123 
	C281.975525,143.396393 281.989166,205.841278 281.969238,268.286163 
	C281.968719,269.922791 281.438232,271.560028 281.445343,273.195709 
	C281.455139,275.454681 281.741394,277.712463 281.505310,280.039917 
	C272.744293,280.385620 264.387238,280.662140 256.022522,280.534363 
	C255.365829,277.767944 254.716766,275.405823 254.346527,272.730530 
	C254.750336,271.438385 254.984360,270.459381 254.984695,269.480316 
	C255.002182,217.416595 255.006577,165.352859 254.964706,113.289169 
	C254.963577,111.868835 254.441925,110.448929 254.056305,108.814201 
	C253.831436,108.275543 253.607971,108.061546 253.279175,107.957581 
z"/>
<path fill="#FFFFFF" opacity="1.000000" stroke="none" 
	d="
M296.765320,287.995728 
	C292.346924,288.588470 290.024078,287.285217 289.869019,282.203094 
	C289.571381,272.449219 288.122406,262.715942 288.088898,252.970901 
	C287.903351,198.977386 288.000000,144.982895 288.000000,90.988731 
	C288.000000,89.988838 287.995911,88.988930 288.000671,87.989059 
	C288.037384,80.285667 289.356750,79.301056 296.471344,82.460312 
	C296.918457,150.459259 296.933594,217.985535 296.939850,285.511810 
	C296.939941,286.339783 296.826019,287.167755 296.765320,287.995728 
z"/>
<path fill="#FEFAF5" opacity="1.000000" stroke="none" 
	d="
M149.822800,119.084465 
	C150.548889,120.802910 151.902695,122.519211 151.908569,124.240112 
	C152.030899,160.049011 152.000320,195.858444 152.000015,231.667770 
	C151.999863,250.488480 152.038925,269.309418 151.938248,288.129578 
	C151.928375,289.973663 151.059586,291.813141 150.069672,293.446045 
	C149.522232,236.212616 149.494614,179.187881 149.662384,121.906387 
	C149.846100,120.794586 149.834457,119.939522 149.822800,119.084465 
z"/>
<path fill="#FCF7F1" opacity="1.000000" stroke="none" 
	d="
M74.786362,326.012054 
	C74.191231,324.396698 73.077118,322.781891 73.075417,321.165894 
	C72.990189,240.519684 72.994743,159.873352 73.046082,79.227066 
	C73.046951,77.864876 73.740852,76.503128 74.532600,75.034561 
	C74.953842,74.927940 75.029533,75.027245 75.023628,75.493935 
	C75.009308,156.157364 74.999466,236.354095 75.003395,316.550842 
	C75.003471,318.039520 75.166954,319.528168 75.203278,321.340027 
	C75.189377,322.096039 75.226387,322.528870 75.149857,323.332581 
	C74.953003,324.473022 74.869682,325.242554 74.786362,326.012054 
z"/>
<path fill="#FEFAF5" opacity="1.000000" stroke="none" 
	d="
M74.909683,74.883804 
	C75.204239,70.771080 78.530273,71.703865 80.865059,71.545937 
	C83.647903,71.357712 86.474617,71.974739 89.282455,71.976166 
	C148.593781,72.006454 207.905136,71.989174 267.216431,72.044907 
	C269.076294,72.046654 270.935486,72.726158 272.436157,73.527161 
	C210.297836,73.976318 148.518387,73.982010 86.738976,74.027275 
	C84.789536,74.028702 82.840401,74.437790 80.589310,74.692184 
	C79.883965,74.698662 79.480431,74.669800 78.906967,74.447556 
	C78.130997,74.396179 77.524963,74.538193 76.865768,74.795792 
	C76.812599,74.911377 77.015656,75.064728 76.776138,74.969254 
	C76.375305,74.933189 76.214005,74.992607 75.798630,74.974609 
	C75.372887,74.940544 75.201210,74.983894 75.029533,75.027245 
	C75.029533,75.027245 74.953842,74.927940 74.909683,74.883804 
z"/>
<path fill="#D20502" opacity="1.000000" stroke="none" 
	d="
M128.992905,325.918091 
	C130.901855,325.612061 132.810608,325.039948 134.719803,325.038544 
	C196.831619,324.992828 258.943451,325.001984 321.391663,325.247498 
	C321.145660,325.924591 320.563354,326.357178 319.981018,326.789764 
	C298.369812,326.837250 276.758636,326.916595 255.147430,326.925415 
	C213.748337,326.942322 172.349243,326.919159 130.374496,326.645721 
	C129.563568,326.166901 129.294922,326.013336 128.992905,325.918091 
z"/>
<path fill="#D20502" opacity="1.000000" stroke="none" 
	d="
M254.163010,109.028831 
	C254.441925,110.448929 254.963577,111.868835 254.964706,113.289169 
	C255.006577,165.352859 255.002182,217.416595 254.984695,269.480316 
	C254.984360,270.459381 254.750336,271.438385 254.185638,272.693481 
	C253.745926,272.969513 253.417450,272.971039 253.417450,272.971039 
	C253.337875,271.978943 253.188614,270.986847 253.188690,269.994751 
	C253.192291,216.672028 253.208481,163.349304 253.483398,109.581497 
	C253.743408,109.136398 254.163010,109.028831 254.163010,109.028831 
z"/>
<path fill="#FEB3B7" opacity="1.000000" stroke="none" 
	d="
M328.184784,80.007080 
	C328.126343,82.003212 328.016968,83.999336 328.016754,85.995476 
	C328.008057,162.285583 328.008392,238.575684 328.012329,314.865784 
	C328.012512,318.530304 328.056030,322.194824 327.567322,325.954956 
	C327.055298,326.050537 326.768555,326.011169 326.860291,325.551086 
	C326.966003,243.719925 326.980377,162.348862 326.986816,80.977814 
	C326.986877,80.315918 326.879181,79.654015 326.906494,78.746277 
	C327.047089,78.336319 327.102936,78.172211 327.344086,78.003433 
	C327.529388,77.998756 327.899933,77.987885 327.945190,78.324799 
	C328.055267,79.110168 328.120026,79.558624 328.184784,80.007080 
z"/>
<path fill="#FFA2A5" opacity="1.000000" stroke="none" 
	d="
M296.835632,288.428772 
	C296.826019,287.167755 296.939941,286.339783 296.939850,285.511810 
	C296.933594,217.985535 296.918457,150.459259 296.835297,82.468605 
	C296.937531,79.797531 297.108429,77.590843 297.618591,75.166565 
	C297.957825,74.948967 298.125000,75.162781 298.086548,75.618805 
	C298.033630,78.407188 298.007233,80.739555 298.006409,83.071930 
	C297.980713,154.380630 297.957550,225.689346 297.934021,296.998047 
	C297.762024,297.052734 297.590027,297.107422 297.122864,297.145203 
	C296.827667,297.128296 297.016296,296.855865 296.982910,296.542206 
	C296.896210,295.812286 296.842865,295.395996 296.789520,294.979736 
	C296.828339,292.940430 296.867126,290.901123 296.835632,288.428772 
z"/>
<path fill="#C12D30" opacity="1.000000" stroke="none" 
	d="
M103.917824,326.036102 
	C103.944725,254.686188 103.968208,183.336273 104.015030,111.986366 
	C104.016434,109.847206 104.262245,107.708214 104.712250,105.296799 
	C105.055351,166.721893 105.079918,228.419312 105.105736,290.116730 
	C105.108940,297.766693 105.118881,305.416626 105.090958,313.985779 
	C105.097458,318.615540 105.138710,322.326172 105.179955,326.036774 
	C105.179955,326.036774 105.017479,326.051208 104.706131,326.028320 
	C104.394791,326.005463 103.917824,326.036102 103.917824,326.036102 
z"/>
<path fill="#C12D30" opacity="1.000000" stroke="none" 
	d="
M281.909241,279.970734 
	C281.741394,277.712463 281.455139,275.454681 281.445343,273.195709 
	C281.438232,271.560028 281.968719,269.922791 281.969238,268.286163 
	C281.989166,205.841278 281.975525,143.396393 281.974548,80.116844 
	C281.649933,78.195618 281.317139,77.109062 280.984344,76.022499 
	C280.984344,76.022499 280.989807,75.999878 280.984924,75.790474 
	C280.980072,75.581070 280.962921,75.144836 281.250671,75.039299 
	C281.720978,74.842003 281.903534,74.750252 282.086121,74.658493 
	C282.086121,74.658493 282.546112,74.824883 282.785553,75.170845 
	C283.093567,75.672966 283.162170,75.829124 283.230713,75.985275 
	C283.168793,78.646523 283.053070,81.307762 283.052734,83.969017 
	C283.044861,147.768616 283.052094,211.568222 283.039673,275.367828 
	C283.039246,277.523193 282.863373,279.678528 282.423401,281.968933 
	C282.077484,282.104034 281.976501,281.812103 281.979462,281.504852 
	C281.958038,280.788635 281.933624,280.379700 281.909241,279.970734 
z"/>
<path fill="#FEB3B7" opacity="1.000000" stroke="none" 
	d="
M118.850113,323.982788 
	C118.892036,302.700226 118.963753,281.417633 118.969727,260.135071 
	C118.982483,214.739868 118.961136,169.344650 118.958084,123.089500 
	C119.024559,121.177406 119.086700,120.125267 119.148842,119.073120 
	C119.148842,119.073120 119.636742,119.087578 119.887886,119.339447 
	C120.139030,119.591309 120.219803,120.011261 120.132729,120.471832 
	C120.056808,189.594116 120.067963,258.255859 120.079117,326.917572 
	C120.079117,326.917572 119.590645,326.973877 119.310410,326.593414 
	C118.970154,325.469574 118.910133,324.726166 118.850113,323.982788 
z"/>
<path fill="#AD1918" opacity="1.000000" stroke="none" 
	d="
M120.347595,326.961060 
	C120.067963,258.255859 120.056808,189.594116 120.366158,120.496124 
	C120.686661,120.059845 121.146782,120.156281 121.139679,120.381775 
	C121.132568,120.607262 121.184631,121.055450 121.184631,121.055450 
	C121.130913,133.376846 121.030891,145.698242 121.031425,158.019638 
	C121.033852,213.973953 121.064613,269.928253 121.100815,326.336884 
	C120.949661,326.862335 120.782867,326.933441 120.347595,326.961060 
z"/>
<path fill="#FDABAF" opacity="1.000000" stroke="none" 
	d="
M281.961914,74.459549 
	C281.903534,74.750252 281.720978,74.842003 280.788391,74.981277 
	C215.805374,75.019226 151.572388,75.012985 87.339417,74.985695 
	C85.189934,74.984787 83.040550,74.771248 80.891121,74.656830 
	C82.840401,74.437790 84.789536,74.028702 86.738976,74.027275 
	C148.518387,73.982010 210.297836,73.976318 272.544800,73.911957 
	C273.453369,73.883102 273.894379,73.906914 275.092346,73.942612 
	C277.567627,73.914642 279.285919,73.874802 281.004242,73.834961 
	C281.303009,73.935822 281.580811,74.077705 281.961914,74.459549 
z"/>
<path fill="#BD0C12" opacity="1.000000" stroke="none" 
	d="
M165.070312,105.018738 
	C165.379730,106.756210 165.958221,108.493462 165.959625,110.231186 
	C166.005310,166.507950 165.995377,222.784760 165.789001,279.529907 
	C165.584244,279.998291 165.178665,279.994324 165.078217,279.776154 
	C164.845215,279.238831 164.612686,279.032196 164.280151,278.938080 
	C164.248413,277.894714 164.216675,276.851349 164.480255,275.086945 
	C164.852173,273.708588 164.995682,273.051300 164.995819,272.393982 
	C165.007431,220.516281 165.013107,168.638596 164.977921,116.760918 
	C164.977066,115.495483 164.512543,114.230370 164.264267,112.965103 
	C164.235184,112.232025 164.206100,111.498955 164.473053,110.122284 
	C164.869492,107.992043 164.969894,106.505386 165.070312,105.018738 
z"/>
<path fill="#BD0C12" opacity="1.000000" stroke="none" 
	d="
M149.466995,122.163132 
	C149.494614,179.187881 149.522232,236.212616 149.704193,293.619141 
	C149.771957,294.427155 149.685410,294.853455 149.645126,295.506226 
	C149.691406,295.732727 149.494919,295.849060 149.337173,295.995453 
	C149.090302,296.417542 149.028473,296.699219 148.987793,297.023346 
	C148.981628,297.059784 148.941895,297.122101 148.941895,297.122101 
	C148.628632,295.044556 148.043976,292.967316 148.041702,290.889435 
	C147.979904,234.584290 147.977707,178.279083 147.961182,121.286507 
	C147.956848,120.599113 147.964142,120.154968 148.173569,120.114410 
	C148.382996,120.073853 148.807755,120.089767 148.890533,120.447113 
	C149.137863,121.257347 149.302429,121.710243 149.466995,122.163132 
z"/>
<path fill="#F78F90" opacity="1.000000" stroke="none" 
	d="
M239.048309,297.484772 
	C238.871811,297.389923 238.695328,297.295074 238.257553,296.634583 
	C237.998322,271.745544 238.018509,247.422119 237.998077,223.098740 
	C237.969254,188.781677 237.910385,154.464661 237.896179,119.905884 
	C237.927979,119.664146 237.953613,119.177185 237.953613,119.177185 
	C237.953613,119.177185 238.365021,119.098549 238.633881,119.502441 
	C238.994598,121.274590 239.086456,122.642845 239.178314,124.011108 
	C239.129974,142.294067 239.044312,160.577026 239.041061,178.859985 
	C239.034241,217.259201 239.070724,255.658401 239.093369,294.830566 
	C239.064377,296.024780 239.031448,296.446045 239.087357,297.015503 
	C239.176193,297.163696 239.048309,297.484772 239.048309,297.484772 
z"/>
<path fill="#B51013" opacity="1.000000" stroke="none" 
	d="
M210.013397,121.023354 
	C210.008148,177.536041 210.006882,234.048737 209.981125,290.561432 
	C209.980225,292.536194 209.735474,294.510834 209.310364,296.775146 
	C209.016312,297.064728 208.999847,296.986420 208.967651,296.703735 
	C208.848236,296.252594 208.761017,296.084137 208.673782,295.915710 
	C208.701309,293.919861 208.728836,291.924042 208.846527,289.042908 
	C208.955124,234.733887 208.975235,181.310181 208.978821,127.886467 
	C208.978882,126.900146 208.782181,125.913811 208.677277,124.927483 
	C208.720505,123.554939 208.763748,122.182388 209.160782,120.428474 
	C209.514572,120.047104 210.001175,120.124619 210.002655,120.349327 
	C210.004135,120.574036 210.013397,121.023354 210.013397,121.023354 
z"/>
<path fill="#B13336" opacity="1.000000" stroke="none" 
	d="
M192.978836,105.012001 
	C192.978836,105.012001 193.358643,104.960968 193.671295,105.024857 
	C193.983948,105.088753 194.266266,105.100784 194.186111,105.407700 
	C194.135315,106.135002 194.164658,106.555374 194.108063,107.373253 
	C194.089752,108.847939 194.157364,109.925133 194.224991,111.002319 
	C194.179276,147.568817 194.124939,184.135315 194.091583,220.701828 
	C194.075668,238.155090 194.099640,255.608398 194.067535,273.921204 
	C194.086884,275.854828 194.144226,276.928955 194.201569,278.003082 
	C194.146576,279.076080 194.091599,280.149109 193.694077,281.598999 
	C193.351532,281.975922 192.875366,281.846527 192.880341,281.586243 
	C192.847610,281.156586 192.809891,280.987183 192.772171,280.817749 
	C192.830093,278.501801 192.888016,276.185883 192.964401,272.966339 
	C192.981522,216.379166 192.980179,160.695587 192.978836,105.012001 
z"/>
<path fill="#FDABAF" opacity="1.000000" stroke="none" 
	d="
M208.443787,125.272995 
	C208.782181,125.913811 208.978882,126.900146 208.978821,127.886467 
	C208.975235,181.310181 208.955124,234.733887 208.808929,288.616455 
	C208.452667,287.800201 208.025146,286.525177 208.024414,285.249878 
	C207.993988,232.698486 208.001175,180.147049 208.013519,127.595627 
	C208.013672,126.936577 208.141861,126.277550 208.443787,125.272995 
z"/>
<path fill="#C65356" opacity="1.000000" stroke="none" 
	d="
M164.134888,113.420013 
	C164.512543,114.230370 164.977066,115.495483 164.977921,116.760918 
	C165.013107,168.638596 165.007431,220.516281 164.995819,272.393982 
	C164.995682,273.051300 164.852173,273.708588 164.527466,274.697754 
	C164.170334,274.045044 163.965881,273.060516 163.965927,272.075989 
	C163.968216,219.342300 163.987762,166.608612 164.134888,113.420013 
z"/>
<path fill="#D60F13" opacity="1.000000" stroke="none" 
	d="
M296.889282,297.282104 
	C295.892639,297.958588 294.836792,298.931244 293.775726,298.936890 
	C276.360138,299.029694 258.943817,299.010498 241.527832,298.964874 
	C240.785629,298.962921 240.044739,298.462830 239.175781,297.839783 
	C239.048309,297.484772 239.176193,297.163696 239.416901,297.111816 
	C240.106491,297.001221 240.555344,296.942474 241.004211,296.883698 
	C258.694427,296.951324 276.384674,297.018951 294.867920,297.089508 
	C296.112732,297.013611 296.564514,296.934753 297.016296,296.855896 
	C297.016296,296.855865 296.827667,297.128296 296.889282,297.282104 
z"/>
<path fill="#D20502" opacity="1.000000" stroke="none" 
	d="
M209.035034,297.100098 
	C207.561600,297.756531 206.075531,298.898926 204.576294,298.916504 
	C192.178909,299.061768 179.778198,298.921906 167.380798,299.067047 
	C165.051651,299.094299 162.678406,299.837036 160.424042,300.557800 
	C157.981293,301.338745 156.959763,300.616547 157.003571,297.759003 
	C173.679535,297.290985 190.364914,297.195648 207.763733,297.089600 
	C208.651398,297.048065 208.825623,297.017242 208.999847,296.986420 
	C208.999847,296.986420 209.016312,297.064728 209.035034,297.100098 
z"/>
<path fill="#FEFAF5" opacity="1.000000" stroke="none" 
	d="
M298.005127,74.006348 
	C298.789703,73.343010 299.566010,72.114967 300.360138,72.103325 
	C308.669861,71.981461 316.982666,72.035126 325.293762,72.120613 
	C325.805664,72.125877 326.310608,72.807693 326.588318,73.574783 
	C325.552185,74.202316 324.746521,74.429787 323.582886,74.695465 
	C322.506042,74.708099 321.787231,74.682541 320.721252,74.429459 
	C314.893616,74.348648 309.413177,74.495346 303.621552,74.676849 
	C302.894653,74.682434 302.478943,74.653221 301.786743,74.408813 
	C300.341888,74.131195 299.173492,74.068771 298.005127,74.006348 
z"/>
<path fill="#F78F90" opacity="1.000000" stroke="none" 
	d="
M105.672882,105.133194 
	C105.163490,104.969101 105.108498,104.809311 105.512955,104.347931 
	C125.306755,104.040062 144.641098,104.033791 163.975449,104.027527 
	C163.975449,104.027527 164.164261,104.480965 164.120193,104.756760 
	C164.076126,105.032555 163.775375,105.108612 163.470871,105.095840 
	C162.766251,105.132034 162.366119,105.181007 161.966003,105.229980 
	C143.353104,105.199150 124.740189,105.168327 105.672882,105.133194 
z"/>
<path fill="#F78F90" opacity="1.000000" stroke="none" 
	d="
M252.977310,104.041672 
	C252.995529,104.210045 253.013748,104.378410 252.748535,104.836548 
	C252.465118,105.126320 252.011169,105.269356 252.011169,105.269348 
	C233.988876,105.215050 215.966568,105.160751 197.142105,105.098465 
	C195.648712,105.093903 194.957489,105.097343 194.266266,105.100784 
	C194.266266,105.100784 193.983948,105.088753 193.862701,105.015800 
	C194.013138,104.672005 194.284836,104.401169 195.267151,104.052856 
	C214.977615,103.997482 233.977463,104.019577 252.977310,104.041672 
z"/>
<path fill="#D60F13" opacity="1.000000" stroke="none" 
	d="
M147.964142,120.154968 
	C147.964142,120.154968 147.956848,120.599113 147.939026,120.821060 
	C139.307861,121.036766 130.694489,121.030533 121.632874,121.039871 
	C121.184631,121.055450 121.132568,120.607262 121.401192,120.324768 
	C122.123749,119.790810 122.577682,119.539352 123.031616,119.287888 
	C129.716385,119.232849 136.401154,119.177818 143.905472,119.128601 
	C145.468277,119.182518 146.211533,119.230606 147.064728,119.481003 
	C147.414139,119.880188 147.677292,120.037415 147.964142,120.154968 
z"/>
<path fill="#BD0C12" opacity="1.000000" stroke="none" 
	d="
M210.480545,121.009979 
	C210.013397,121.023354 210.004135,120.574036 210.377930,120.300980 
	C212.175720,119.780708 213.599716,119.533493 215.023712,119.286270 
	C218.714905,119.235657 222.406082,119.185036 226.798279,119.129097 
	C227.664810,119.060310 227.830353,118.996849 227.995911,118.933380 
	C229.714294,118.999924 231.432678,119.066475 233.829208,119.169922 
	C234.682419,119.289597 234.857468,119.372360 235.032516,119.455124 
	C233.622208,119.970093 232.221680,120.895988 230.799942,120.929825 
	C224.185745,121.087227 217.565659,120.997742 210.480545,121.009979 
z"/>
<path fill="#C7161C" opacity="1.000000" stroke="none" 
	d="
M321.068390,74.656967 
	C321.787231,74.682541 322.506042,74.708099 323.871887,74.828163 
	C325.125793,75.093292 325.732666,75.263908 326.339569,75.434525 
	C326.506805,75.496918 326.674042,75.559311 326.998291,75.518616 
	C327.155304,75.415512 327.159210,75.607239 327.052612,75.893120 
	C327.016937,76.788704 327.087860,77.398407 327.158783,78.008110 
	C327.102936,78.172211 327.047089,78.336319 326.699280,78.748703 
	C326.407349,78.996979 325.992859,78.999840 325.992859,78.999840 
	C319.175537,73.461288 311.157654,76.824516 303.700256,76.144745 
	C302.407410,76.026894 300.953552,77.675285 299.286377,78.382980 
	C299.009796,77.247353 299.020905,76.236603 299.411377,75.140656 
	C300.548218,74.911644 301.305695,74.767822 302.063202,74.624008 
	C302.478943,74.653221 302.894653,74.682434 304.075531,74.817909 
	C310.249908,74.835106 315.659149,74.746040 321.068390,74.656967 
z"/>
<path fill="#F78F90" opacity="1.000000" stroke="none" 
	d="
M192.875366,281.846527 
	C192.875366,281.846527 193.351532,281.975922 193.597870,281.990936 
	C193.844223,282.005951 194.071823,281.867371 194.067108,282.117615 
	C194.062378,282.367828 193.917999,282.830719 193.917999,282.830719 
	C186.910172,282.916168 179.902359,283.001617 172.064911,283.072998 
	C170.503708,283.101654 169.772141,283.144348 169.040573,283.187012 
	C167.865005,283.069183 166.689438,282.951324 165.249329,282.480469 
	C164.984772,282.127411 165.091797,281.823364 165.548187,281.885681 
	C174.961502,281.914185 183.918442,281.880341 192.875366,281.846527 
z"/>
<path fill="#F78F90" opacity="1.000000" stroke="none" 
	d="
M282.072205,282.258362 
	C282.066956,282.412720 282.143646,282.785675 281.714447,282.911987 
	C280.518707,283.088318 279.752197,283.138397 278.985657,283.188416 
	C278.536133,283.149261 278.086639,283.110107 276.911316,283.047699 
	C275.137268,283.073761 274.089050,283.123077 273.040833,283.172424 
	C268.006439,283.141785 262.972046,283.111206 257.091339,283.065063 
	C255.066254,282.656067 253.887497,282.262604 252.708740,281.869141 
	C252.708740,281.869141 252.967361,281.846619 253.296783,281.891968 
	C253.626190,281.937317 254.062271,281.818298 254.525024,281.875671 
	C263.984009,281.892761 272.980255,281.852448 281.976501,281.812134 
	C281.976501,281.812103 282.077484,282.104034 282.072205,282.258362 
z"/>
<path fill="#D03633" opacity="1.000000" stroke="none" 
	d="
M95.011078,325.950073 
	C97.158424,326.062225 99.305779,326.174347 101.432228,326.630859 
	C100.947769,327.056915 100.484207,327.138641 100.020653,327.220367 
	C93.662331,327.177551 87.304008,327.134735 80.146393,327.078888 
	C78.891464,327.116211 78.435829,327.166504 77.980186,327.216827 
	C77.817970,327.162231 77.655754,327.107666 77.250549,326.760773 
	C77.007553,326.468445 77.011902,326.054626 77.250809,326.025391 
	C77.489708,325.996124 77.969437,325.956421 78.439957,325.976685 
	C84.277344,325.981354 89.644211,325.965698 95.011078,325.950073 
z"/>
<path fill="#D60F13" opacity="1.000000" stroke="none" 
	d="
M253.303726,273.401001 
	C253.417450,272.971039 253.745926,272.969513 253.906815,273.006592 
	C254.716766,275.405823 255.365829,277.767944 255.701569,280.551331 
	C254.961380,280.969025 254.534546,280.965454 253.897491,280.937866 
	C253.687271,280.913879 253.264206,280.922516 253.264206,280.922516 
	C253.239471,278.558655 253.214737,276.194794 253.303726,273.401001 
z"/>
<path fill="#FCF7F1" opacity="1.000000" stroke="none" 
	d="
M252.452148,281.759399 
	C253.887497,282.262604 255.066254,282.656067 256.628296,283.121643 
	C254.388519,285.639069 251.635849,285.232025 250.511292,282.232544 
	C251.072708,282.038239 251.634125,281.843964 252.452148,281.759399 
z"/>
<path fill="#FEFAF5" opacity="1.000000" stroke="none" 
	d="
M280.916138,73.486191 
	C279.285919,73.874802 277.567627,73.914642 275.422058,73.904381 
	C276.583130,70.717743 278.673401,71.665726 280.916138,73.486191 
z"/>
<path fill="#FFD9DE" opacity="1.000000" stroke="none" 
	d="
M105.441101,325.722748 
	C105.138710,322.326172 105.097458,318.615540 105.147018,314.451050 
	C105.392647,317.801025 105.547455,321.604858 105.441101,325.722748 
z"/>
<path fill="#FFF4F3" opacity="1.000000" stroke="none" 
	d="
M118.798691,119.076698 
	C119.086700,120.125267 119.024559,121.177406 118.916214,122.623734 
	C118.018112,122.419556 117.166222,121.821198 116.314316,121.222839 
	C117.025726,120.508652 117.737137,119.794464 118.798691,119.076698 
z"/>
<path fill="#FEFAF5" opacity="1.000000" stroke="none" 
	d="
M327.159210,75.607239 
	C327.159210,75.607239 327.155304,75.415512 327.184937,75.326660 
	C331.350769,75.454147 330.408997,77.532028 328.539581,79.913498 
	C328.120026,79.558624 328.055267,79.110168 327.953064,77.891251 
	C327.663483,76.616272 327.411346,76.111755 327.159210,75.607239 
z"/>
<path fill="#D03633" opacity="1.000000" stroke="none" 
	d="
M320.400604,326.906464 
	C320.563354,326.357178 321.145660,325.924591 321.859772,325.249664 
	C322.733215,324.981171 323.474884,324.955017 324.724365,325.162292 
	C325.744293,325.600861 326.256439,325.806000 326.768555,326.011169 
	C326.768555,326.011169 327.055298,326.050537 327.197876,326.025879 
	C325.167023,326.341858 322.993622,326.682526 320.400604,326.906464 
z"/>
<path fill="#FFF4F3" opacity="1.000000" stroke="none" 
	d="
M239.525497,123.923805 
	C239.086456,122.642845 238.994598,121.274590 238.843292,119.499924 
	C242.266556,119.958321 241.334534,121.836594 239.525497,123.923805 
z"/>
<path fill="#FFF4F3" opacity="1.000000" stroke="none" 
	d="
M146.954788,119.278702 
	C146.211533,119.230606 145.468277,119.182518 144.365997,119.032928 
	C146.518265,115.633301 146.749344,115.585449 147.735077,118.549561 
	C147.299286,119.089088 147.127045,119.183891 146.954788,119.278702 
z"/>
<path fill="#FCF7F1" opacity="1.000000" stroke="none" 
	d="
M279.049133,283.501953 
	C279.752197,283.138397 280.518707,283.088318 281.666504,283.096252 
	C281.069366,283.374603 280.091003,283.595032 279.049133,283.501953 
z"/>
<path fill="#FFF4F3" opacity="1.000000" stroke="none" 
	d="
M118.528137,324.047974 
	C118.910133,324.726166 118.970154,325.469574 119.064743,326.583771 
	C118.801598,326.007446 118.503876,325.060272 118.528137,324.047974 
z"/>
<path fill="#FFF4F3" opacity="1.000000" stroke="none" 
	d="
M194.186111,105.407700 
	C194.957489,105.097343 195.648712,105.093903 196.678467,105.159447 
	C196.558563,105.796005 196.100128,106.363586 195.129913,106.957245 
	C194.618118,106.983337 194.194016,106.975754 194.194016,106.975754 
	C194.164658,106.555374 194.135315,106.135002 194.186111,105.407700 
z"/>
<path fill="#C65356" opacity="1.000000" stroke="none" 
	d="
M214.629013,119.155502 
	C213.599716,119.533493 212.175720,119.780708 210.376450,120.076271 
	C210.001175,120.124619 209.514572,120.047104 209.268784,120.030319 
	C210.760101,119.683937 212.497208,119.354340 214.629013,119.155502 
z"/>
<path fill="#C65356" opacity="1.000000" stroke="none" 
	d="
M164.896469,104.983688 
	C164.969894,106.505386 164.869492,107.992043 164.527740,109.758530 
	C164.171646,109.284828 164.056885,108.531288 163.942627,107.082001 
	C163.887222,105.960373 163.831299,105.534492 163.775391,105.108612 
	C163.775375,105.108612 164.076126,105.032555 164.222351,104.980103 
	C164.368576,104.927643 164.722626,104.948631 164.896469,104.983688 
z"/>
<path fill="#BB3F43" opacity="1.000000" stroke="none" 
	d="
M77.011902,326.054626 
	C77.011902,326.054626 77.007553,326.468445 77.008575,326.674988 
	C76.373909,326.792572 75.738205,326.703644 74.944435,326.313385 
	C74.869682,325.242554 74.953003,324.473022 75.370789,323.548126 
	C76.140800,324.280029 76.576355,325.167328 77.011902,326.054626 
z"/>
<path fill="#FFD9DE" opacity="1.000000" stroke="none" 
	d="
M194.108063,107.373253 
	C194.194016,106.975754 194.618118,106.983337 194.830536,106.991470 
	C194.925064,108.159836 194.807205,109.320068 194.457169,110.741310 
	C194.157364,109.925133 194.089752,108.847939 194.108063,107.373253 
z"/>
<path fill="#FDABAF" opacity="1.000000" stroke="none" 
	d="
M301.786743,74.408813 
	C301.305695,74.767822 300.548218,74.911644 299.187378,75.081085 
	C298.584045,75.106712 298.125000,75.162781 298.125000,75.162781 
	C298.125000,75.162781 297.957825,74.948967 297.870483,74.844238 
	C297.783142,74.739517 297.916199,74.379585 297.960663,74.192963 
	C299.173492,74.068771 300.341888,74.131195 301.786743,74.408813 
z"/>
<path fill="#FFEDED" opacity="1.000000" stroke="none" 
	d="
M163.470886,105.095840 
	C163.831299,105.534492 163.887222,105.960373 163.875214,106.703445 
	C163.229248,106.611008 162.651215,106.201363 162.019592,105.510849 
	C162.366119,105.181007 162.766251,105.132034 163.470886,105.095840 
z"/>
<path fill="#FFD9DE" opacity="1.000000" stroke="none" 
	d="
M194.425629,277.774231 
	C194.144226,276.928955 194.086884,275.854828 194.124313,274.386047 
	C194.362610,275.176086 194.506149,276.360748 194.425629,277.774231 
z"/>
<path fill="#FFEDED" opacity="1.000000" stroke="none" 
	d="
M235.276947,119.333649 
	C234.857468,119.372360 234.682419,119.289597 234.249512,119.072998 
	C234.637085,118.745995 235.282532,118.552811 235.963531,118.653763 
	C235.839874,119.035995 235.680634,119.124084 235.276947,119.333649 
z"/>
<path fill="#D03633" opacity="1.000000" stroke="none" 
	d="
M123.354927,326.907898 
	C124.156174,326.638641 125.352867,326.483215 126.775772,326.558075 
	C125.918114,326.866150 124.834244,326.943939 123.354927,326.907898 
z"/>
<path fill="#FFEDED" opacity="1.000000" stroke="none" 
	d="
M78.027817,327.492584 
	C78.435829,327.166504 78.891464,327.116211 79.683723,327.146179 
	C79.372047,327.407135 78.723747,327.587738 78.027817,327.492584 
z"/>
<path fill="#FCF7F1" opacity="1.000000" stroke="none" 
	d="
M273.262909,283.398315 
	C274.089050,283.123077 275.137268,283.073761 276.574585,283.089508 
	C275.804138,283.311096 274.644562,283.467621 273.262909,283.398315 
z"/>
<path fill="#FCF7F1" opacity="1.000000" stroke="none" 
	d="
M296.982910,296.542236 
	C296.564514,296.934753 296.112732,297.013611 295.327698,296.993744 
	C295.400269,296.291595 295.806122,295.688202 296.500732,295.032288 
	C296.842865,295.395996 296.896210,295.812286 296.982910,296.542236 
z"/>
<path fill="#FFF4F3" opacity="1.000000" stroke="none" 
	d="
M194.061066,283.069366 
	C193.917999,282.830719 194.062378,282.367828 194.192291,282.163208 
	C194.750870,282.320923 195.179550,282.683258 195.608215,283.045593 
	C195.140198,283.133057 194.672165,283.220551 194.061066,283.069366 
z"/>
<path fill="#FFF4F3" opacity="1.000000" stroke="none" 
	d="
M240.968140,296.590271 
	C240.555344,296.942474 240.106491,297.001221 239.328064,296.963623 
	C239.031448,296.446045 239.064377,296.024780 239.162598,295.293243 
	C239.795959,295.420929 240.364014,295.858887 240.968140,296.590271 
z"/>
<path fill="#DF4D4C" opacity="1.000000" stroke="none" 
	d="
M122.682678,119.161362 
	C122.577682,119.539352 122.123749,119.790810 121.408295,120.099274 
	C121.146782,120.156281 120.686661,120.059845 120.453232,120.035553 
	C120.219803,120.011261 120.139030,119.591309 120.128876,119.378014 
	C120.857056,119.121422 121.595390,119.078133 122.682678,119.161362 
z"/>
<path fill="#FFEDED" opacity="1.000000" stroke="none" 
	d="
M100.221588,327.432251 
	C100.484207,327.138641 100.947769,327.056915 101.748657,326.864563 
	C102.085983,326.753906 102.551224,326.907959 102.765823,327.026031 
	C102.127792,327.310760 101.275154,327.477448 100.221588,327.432251 
z"/>
<path fill="#FDABAF" opacity="1.000000" stroke="none" 
	d="
M326.598145,75.107697 
	C325.732666,75.263908 325.125793,75.093292 324.229889,74.789963 
	C324.746521,74.429787 325.552185,74.202316 326.685730,73.968567 
	C326.961304,74.235153 326.908997,74.508011 326.598145,75.107697 
z"/>
<path fill="#FFF4F3" opacity="1.000000" stroke="none" 
	d="
M169.232574,283.398621 
	C169.772141,283.144348 170.503708,283.101654 171.596695,283.126801 
	C171.113602,283.333130 170.269104,283.471680 169.232574,283.398621 
z"/>
<path fill="#E58787" opacity="1.000000" stroke="none" 
	d="
M149.662384,121.906387 
	C149.302429,121.710243 149.137863,121.257347 148.930603,120.222984 
	C148.887909,119.641518 148.910843,119.186447 148.910843,119.186447 
	C148.910843,119.186447 149.363205,119.093864 149.593002,119.089165 
	C149.834457,119.939522 149.846100,120.794586 149.662384,121.906387 
z"/>
<path fill="#C65356" opacity="1.000000" stroke="none" 
	d="
M164.147293,279.303894 
	C164.612686,279.032196 164.845215,279.238831 165.026825,280.078552 
	C165.081207,281.007172 165.086502,281.415283 165.091797,281.823364 
	C165.091797,281.823364 164.984772,282.127411 164.953247,282.286255 
	C164.619293,281.519989 164.316864,280.594849 164.147293,279.303894 
z"/>
<path fill="#DF4D4C" opacity="1.000000" stroke="none" 
	d="
M148.690735,119.068253 
	C148.910843,119.186447 148.887909,119.641518 148.847839,119.865646 
	C148.807755,120.089767 148.382996,120.073853 148.173569,120.114410 
	C147.677292,120.037415 147.414139,119.880188 147.064728,119.480995 
	C147.127045,119.183891 147.299286,119.089088 147.741089,118.874550 
	C148.010651,118.754822 148.470612,118.950066 148.690735,119.068253 
z"/>
<path fill="#DF4D4C" opacity="1.000000" stroke="none" 
	d="
M253.145477,281.183502 
	C253.264206,280.922516 253.687271,280.913879 253.864471,281.151062 
	C254.041687,281.388275 254.062271,281.818298 254.062271,281.818298 
	C254.062271,281.818298 253.626190,281.937317 253.402420,281.967407 
	C253.128021,281.813141 253.077393,281.628815 253.145477,281.183502 
z"/>
<path fill="#FDABAF" opacity="1.000000" stroke="none" 
	d="
M208.967651,296.703735 
	C208.825623,297.017242 208.651398,297.048065 208.223206,297.001373 
	C207.972656,296.615662 208.078156,296.347687 208.479736,296.017822 
	C208.761017,296.084137 208.848236,296.252594 208.967651,296.703735 
z"/>
<path fill="#FFEDED" opacity="1.000000" stroke="none" 
	d="
M149.771530,295.814087 
	C150.136688,296.075012 150.421738,296.254608 150.827911,296.659607 
	C150.949051,296.884979 151.048126,297.129730 150.806976,297.144379 
	C150.389359,297.087646 150.212891,297.016235 149.966400,296.638611 
	C149.762558,296.171295 149.628738,296.010162 149.494919,295.849060 
	C149.494919,295.849060 149.691406,295.732727 149.771530,295.814087 
z"/>
<path fill="#FFEDED" opacity="1.000000" stroke="none" 
	d="
M283.371185,75.868591 
	C283.162170,75.829124 283.093567,75.672966 283.012756,75.261337 
	C283.170898,75.254555 283.341278,75.503235 283.371185,75.868591 
z"/>
<path fill="#FFEDED" opacity="1.000000" stroke="none" 
	d="
M252.123032,105.434265 
	C252.011169,105.269356 252.465118,105.126320 252.699615,105.085831 
	C252.992401,105.205132 253.050690,105.364922 253.012726,105.760986 
	C252.647491,105.936111 252.420288,105.803413 252.123032,105.434265 
z"/>
<path fill="#DF4D4C" opacity="1.000000" stroke="none" 
	d="
M254.056305,108.814201 
	C254.163010,109.028831 253.743408,109.136398 253.527328,109.121765 
	C253.233002,108.917511 253.154755,108.727890 253.177856,108.247925 
	C253.607971,108.061546 253.831436,108.275543 254.056305,108.814201 
z"/>
<path fill="#C65356" opacity="1.000000" stroke="none" 
	d="
M237.659515,119.109833 
	C237.953613,119.177185 237.927979,119.664146 237.655548,119.877884 
	C237.383133,120.091621 236.902985,120.154465 236.902985,120.154465 
	C236.902985,120.154465 236.790451,119.728088 236.802307,119.507965 
	C236.997925,119.206062 237.181671,119.124275 237.659515,119.109833 
z"/>
<path fill="#D03633" opacity="1.000000" stroke="none" 
	d="
M103.892105,326.214966 
	C103.917824,326.036102 104.394791,326.005463 104.633270,325.991699 
	C104.722504,326.278931 104.573257,326.579956 104.153130,326.817932 
	C103.882256,326.754883 103.866379,326.393829 103.892105,326.214966 
z"/>
<path fill="#D03633" opacity="1.000000" stroke="none" 
	d="
M128.970795,326.136169 
	C129.294922,326.013336 129.563568,326.166901 129.911194,326.582947 
	C129.845779,326.851349 129.667984,326.915680 129.222458,326.886230 
	C128.954727,326.792511 128.948685,326.354218 128.970795,326.136169 
z"/>
<path fill="#FFEDED" opacity="1.000000" stroke="none" 
	d="
M227.909500,118.768433 
	C227.830353,118.996849 227.664810,119.060310 227.249954,119.031235 
	C227.274780,118.826958 227.548935,118.715218 227.909500,118.768433 
z"/>
<path fill="#FCF7F1" opacity="1.000000" stroke="none" 
	d="
M283.532043,284.549469 
	C283.476410,284.582733 283.587677,284.516205 283.532043,284.549469 
z"/>
<path fill="#CB1F1E" opacity="1.000000" stroke="none" 
	d="
M326.860291,325.551086 
	C326.256439,325.806000 325.744293,325.600861 325.094849,325.144287 
	C325.306244,322.449646 325.958130,320.006592 325.959686,317.563141 
	C326.010864,238.354507 325.999390,159.145844 325.995056,79.468506 
	C325.992859,78.999840 326.407349,78.996979 326.614563,78.994553 
	C326.879181,79.654015 326.986877,80.315918 326.986816,80.977814 
	C326.980377,162.348862 326.966003,243.719925 326.860291,325.551086 
z"/>
<path fill="#B51013" opacity="1.000000" stroke="none" 
	d="
M298.086548,75.618805 
	C298.125000,75.162781 298.584045,75.106712 298.808044,75.166275 
	C299.020905,76.236603 299.009796,77.247353 299.002747,78.637962 
	C299.013031,149.691559 299.022583,220.365311 299.006561,291.039062 
	C299.006165,292.842255 298.725403,294.645416 298.254700,296.723328 
	C297.957550,225.689346 297.980713,154.380630 298.006409,83.071930 
	C298.007233,80.739555 298.033630,78.407188 298.086548,75.618805 
z"/>
<path fill="#B51013" opacity="1.000000" stroke="none" 
	d="
M236.916245,120.609421 
	C236.902985,120.154465 237.383133,120.091621 237.623749,120.119614 
	C237.910385,154.464661 237.969254,188.781677 237.998077,223.098740 
	C238.018509,247.422119 237.998322,271.745544 237.973114,296.537537 
	C237.630051,295.108948 237.032837,293.212097 237.030502,291.314545 
	C236.960693,234.564545 236.949738,177.814453 236.916245,120.609421 
z"/>
<path fill="#D20502" opacity="1.000000" stroke="none" 
	d="
M150.036438,296.944855 
	C150.212891,297.016235 150.389359,297.087646 150.826828,297.274902 
	C150.715866,298.116150 150.343918,298.841553 149.971954,299.566956 
	C149.647064,298.966980 149.322159,298.367004 148.969574,297.444580 
	C148.941895,297.122101 148.981628,297.059784 149.250275,297.057495 
	C149.691422,297.018433 149.863937,296.981659 150.036438,296.944855 
z"/>
<path fill="#BD0C12" opacity="1.000000" stroke="none" 
	d="
M77.250809,326.025391 
	C76.576355,325.167328 76.140800,324.280029 75.484322,323.177185 
	C75.226387,322.528870 75.189377,322.096039 75.449074,321.007080 
	C75.830032,318.361694 75.987251,316.372498 75.988007,314.383240 
	C76.018402,234.606171 76.034637,154.829102 76.052696,75.052025 
	C76.214005,74.992607 76.375305,74.933189 76.779259,75.229416 
	C77.036255,75.757912 77.050613,75.930763 77.064972,76.103622 
	C77.287949,76.868584 77.510925,77.633545 77.606491,78.858658 
	C77.324348,79.880302 77.169617,80.441780 77.014885,81.003265 
	C77.018364,161.348251 77.021851,241.693253 77.049675,322.822937 
	C77.372498,324.390564 77.670967,325.173492 77.969437,325.956421 
	C77.969437,325.956421 77.489708,325.996124 77.250809,326.025391 
z"/>
<path fill="#C7161C" opacity="1.000000" stroke="none" 
	d="
M77.526329,76.069084 
	C77.050613,75.930763 77.036255,75.757912 77.018784,75.324890 
	C77.015656,75.064728 76.812599,74.911377 77.217270,74.928894 
	C78.106926,74.844582 78.591919,74.742760 79.076904,74.640945 
	C79.480431,74.669800 79.883965,74.698662 80.589310,74.692177 
	C83.040550,74.771248 85.189934,74.984787 87.339417,74.985695 
	C151.572388,75.012985 215.805374,75.019226 280.500641,75.086807 
	C280.962921,75.144836 280.980072,75.581070 280.974884,75.799477 
	C213.309021,76.023438 145.648361,76.028992 77.526329,76.069084 
z"/>
<path fill="#BD0C12" opacity="1.000000" stroke="none" 
	d="
M192.686234,105.306877 
	C192.980179,160.695587 192.981522,216.379166 192.954712,272.529785 
	C192.621780,271.588257 192.051697,270.179932 192.050491,268.771118 
	C192.005173,215.359604 192.010147,161.948059 192.028046,108.536530 
	C192.028366,107.558228 192.266479,106.580009 192.686234,105.306877 
z"/>
<path fill="#B51013" opacity="1.000000" stroke="none" 
	d="
M163.695801,103.717224 
	C144.641098,104.033791 125.306755,104.040062 105.509842,104.094475 
	C106.237114,103.758553 107.425644,103.044609 108.616966,103.039940 
	C126.241760,102.970764 143.866913,102.991409 161.491959,103.015572 
	C162.133545,103.016449 162.774750,103.270744 163.695801,103.717224 
z"/>
<path fill="#B51013" opacity="1.000000" stroke="none" 
	d="
M252.789703,103.763367 
	C233.977463,104.019577 214.977615,103.997482 195.518494,103.909225 
	C195.516068,103.566071 195.972885,103.289070 196.966248,103.001740 
	C197.673523,102.984894 197.844238,102.978394 198.014969,102.971893 
	C198.453644,102.974014 198.892303,102.976143 199.915833,102.984978 
	C200.671265,102.986320 200.841843,102.980965 201.012436,102.975601 
	C216.691376,102.976952 232.370300,102.978302 248.773834,102.977852 
	C249.669205,102.962555 249.839981,102.949066 250.010757,102.935577 
	C250.874542,103.118736 251.738312,103.301903 252.789703,103.763367 
z"/>
<path fill="#D60F13" opacity="1.000000" stroke="none" 
	d="
M78.439957,325.976685 
	C77.670967,325.173492 77.372498,324.390564 77.067047,323.289490 
	C81.812866,322.982605 86.573303,322.850128 91.313293,323.102051 
	C92.563873,323.168518 93.751366,324.421875 94.989449,325.540161 
	C89.644211,325.965698 84.277344,325.981354 78.439957,325.976685 
z"/>
<path fill="#B51013" opacity="1.000000" stroke="none" 
	d="
M254.525024,281.875671 
	C254.062271,281.818298 254.041687,281.388275 254.074692,281.175079 
	C254.534546,280.965454 254.961380,280.969025 255.709198,280.955627 
	C264.387238,280.662140 272.744293,280.385620 281.505280,280.039917 
	C281.933624,280.379700 281.958038,280.788635 281.979462,281.504883 
	C272.980255,281.852448 263.984009,281.892761 254.525024,281.875671 
z"/>
<path fill="#B51013" opacity="1.000000" stroke="none" 
	d="
M165.548187,281.885681 
	C165.086502,281.415283 165.081207,281.007172 165.127289,280.296692 
	C165.178665,279.994324 165.584244,279.998291 165.786957,279.998505 
	C169.513351,280.327789 173.031662,280.838013 176.562012,280.942841 
	C181.665787,281.094330 186.778290,280.952087 192.329620,280.876465 
	C192.809891,280.987183 192.847610,281.156586 192.880341,281.586243 
	C183.918442,281.880341 174.961502,281.914185 165.548187,281.885681 
z"/>
<path fill="#C7161C" opacity="1.000000" stroke="none" 
	d="
M280.986633,76.384254 
	C281.317139,77.109062 281.649933,78.195618 281.960266,79.649452 
	C281.621490,78.926491 281.305206,77.836250 280.986633,76.384254 
z"/>
<path fill="#D60F13" opacity="1.000000" stroke="none" 
	d="
M77.258293,80.829880 
	C77.169617,80.441780 77.324348,79.880302 77.717995,79.141312 
	C77.805176,79.528038 77.653442,80.092270 77.258293,80.829880 
z"/>
<path fill="#D60F13" opacity="1.000000" stroke="none" 
	d="
M197.920685,102.808716 
	C197.844238,102.978394 197.673523,102.984894 197.246613,102.982727 
	C197.269073,102.864555 197.547729,102.755058 197.920685,102.808716 
z"/>
<path fill="#D60F13" opacity="1.000000" stroke="none" 
	d="
M200.919373,102.811722 
	C200.841843,102.980965 200.671265,102.986320 200.244843,102.981483 
	C200.268082,102.863464 200.547195,102.755653 200.919373,102.811722 
z"/>
<path fill="#D60F13" opacity="1.000000" stroke="none" 
	d="
M249.913055,102.778236 
	C249.839981,102.949066 249.669205,102.962555 249.241440,102.968910 
	C249.261429,102.848152 249.538391,102.734520 249.913055,102.778236 
z"/>
<path fill="#BB3F43" opacity="1.000000" stroke="none" 
	d="
M75.798630,74.974609 
	C76.034637,154.829102 76.018402,234.606171 75.988007,314.383240 
	C75.987251,316.372498 75.830032,318.361694 75.499985,320.683899 
	C75.166954,319.528168 75.003471,318.039520 75.003395,316.550842 
	C74.999466,236.354095 75.009308,156.157364 75.023628,75.493935 
	C75.201210,74.983894 75.372887,74.940544 75.798630,74.974609 
z"/>
<path fill="#FDABAF" opacity="1.000000" stroke="none" 
	d="
M78.906967,74.447548 
	C78.591919,74.742760 78.106926,74.844582 77.270439,74.813309 
	C77.524963,74.538193 78.130997,74.396179 78.906967,74.447548 
z"/>
<path fill="#FDABAF" opacity="1.000000" stroke="none" 
	d="
M327.052612,75.893120 
	C327.411346,76.111755 327.663483,76.616272 327.907776,77.554337 
	C327.899933,77.987885 327.529388,77.998756 327.344086,78.003433 
	C327.087860,77.398407 327.016937,76.788704 327.052612,75.893120 
z"/>
<path fill="#E58787" opacity="1.000000" stroke="none" 
	d="
M149.966400,296.638611 
	C149.863937,296.981659 149.691422,297.018433 149.256439,297.021057 
	C149.028473,296.699219 149.090302,296.417542 149.337173,295.995453 
	C149.628738,296.010162 149.762558,296.171295 149.966400,296.638611 
z"/>
<path fill="#FDABAF" opacity="1.000000" stroke="none" 
	d="
M320.721252,74.429459 
	C315.659149,74.746040 310.249908,74.835106 304.386688,74.783112 
	C309.413177,74.495346 314.893616,74.348648 320.721252,74.429459 
z"/>
</svg>